<?xml version="1.0" encoding="UTF-8" standalone="no"?>
<!DOCTYPE svg PUBLIC "-//W3C//DTD SVG 1.1//EN" "http://www.w3.org/Graphics/SVG/1.1/DTD/svg11.dtd">
<svg width="100%" height="100%" viewBox="0 0 146 158" version="1.1" xmlns="http://www.w3.org/2000/svg" xmlns:xlink="http://www.w3.org/1999/xlink" xml:space="preserve" xmlns:serif="http://www.serif.com/" style="fill-rule:evenodd;clip-rule:evenodd;stroke-linejoin:round;stroke-miterlimit:2;">
    <g id="Layer-1" serif:id="Layer 1" transform="matrix(1,0,0,1,-326.593,-168.333)">
        <g id="icon_css.svg" transform="matrix(0.332464,0,0,0.31875,399.616,247.624)">
            <g id="Layer-11" serif:id="Layer 1">
                <g id="icon_css.svg1" serif:id="icon_css.svg" transform="matrix(1,0,0,1,-171,-240)">
                    <g id="_-000000ff" serif:id="#000000ff">
                        <path d="M68.37,0.96C89.37,0.7 110.37,0.88 131.37,0.87C131.42,7.44 131.52,14.01 131.28,20.58C116.73,20.48 102.19,20.58 87.65,20.67C87.55,30.21 87.36,39.75 87.45,49.29C102.05,49.38 116.66,49.52 131.26,49.46C131.43,54.86 131.37,60.28 131.21,65.69C110.27,65.55 89.33,65.61 68.39,65.63C68.44,44.07 68.48,22.52 68.37,0.96Z" style="fill-rule:nonzero;"/>
                        <path d="M138.86,0.89C160.12,0.85 181.38,0.72 202.65,0.96C202.57,7.17 202.63,13.37 202.63,19.58C187.16,19.53 171.68,19.6 156.21,19.78C156.23,22.22 156.23,24.66 156.21,27.1C171.66,27.35 187.1,27.38 202.54,27.47C202.6,40.2 202.57,52.92 202.65,65.64C181.38,65.6 160.11,65.62 138.84,65.72C138.73,60.58 138.72,55.45 138.87,50.31C153.61,50.35 168.36,50.37 183.1,50.25C183.19,46.94 183.23,43.62 183.22,40.31C168.41,40.31 153.59,40.36 138.78,40.26C138.78,27.14 138.78,14.01 138.86,0.89Z" style="fill-rule:nonzero;"/>
                        <path d="M209.77,1L273.44,1C273.53,7.24 273.62,13.48 273.42,19.71C257.88,19.7 242.34,19.79 226.8,19.82C226.84,22.37 226.9,24.92 227.03,27.47C242.48,27.4 257.93,27.59 273.37,27.75C273.51,40.42 273.61,53.09 273.43,65.76C252.16,65.7 230.89,65.7 209.62,65.8C209.49,60.68 209.45,55.54 209.67,50.42C224.38,50.53 239.1,50.51 253.82,50.37C253.86,47.05 253.93,43.73 253.9,40.42C239.13,40.56 224.35,40.48 209.57,40.43C209.57,27.29 209.67,14.14 209.77,1Z" style="fill-rule:nonzero;"/>
                    </g>
                    <g id="_-0170baff" serif:id="#0170baff">
                        <path d="M0,92.46C113.92,92.45 227.83,92.44 341.75,92.46C335.48,163.31 329.31,234.16 322.78,304.99C318.9,350.26 314.9,395.53 310.68,440.77C286.37,447.21 262.3,454.55 238,461.02C215.68,467.57 193.18,473.5 170.85,480L170.19,480C148.94,473.68 127.48,468.12 106.23,461.8C81.15,455.04 56.29,447.5 31.2,440.77C27.93,406.86 24.98,372.93 22.07,339C16.58,276.31 10.61,213.66 5.33,150.96C3.5,132.09 2.19,113.16 0,94.33L0,92.46M171.41,120.41C171.17,134.02 171.59,147.64 171.17,161.24C132.09,161.1 93,161.21 53.92,161.25C54.59,174.46 56.36,187.58 58.18,200.68C94.54,202.03 130.95,200.63 167.31,201.72C135.5,215.99 103.3,229.43 71.35,243.4C68.61,244.62 65.68,245.54 63.23,247.32C63.5,261.83 65.84,276.26 66.87,290.74C86.25,290.67 105.62,290.36 125,290.33C140.53,290.25 156.07,290.56 171.6,290.22C170.86,314.08 171.83,337.97 171.1,361.83C160.65,360.28 150.33,357.95 139.92,356.1C131.71,354.31 123.3,353.38 115.21,351.03C114.06,339.58 113.26,328.09 112.24,316.63C109.9,315.91 107.42,315.98 105,315.94C93.26,316.01 81.51,315.9 69.76,316.08C70.91,338.11 72.89,360.11 76.26,381.93C87.84,384.95 99.44,387.91 111,391.06C128.71,395.88 146.64,399.89 164.38,404.63C166.49,405.08 168.62,405.86 170.81,405.68C171.99,420.17 171.08,434.75 171.3,449.28C175.39,448.62 179.41,447.61 183.36,446.39C216.94,437.27 250.48,427.98 284.04,418.77C285.71,405.57 286.49,392.28 287.81,379.05C291.3,338.83 294.82,298.61 298.48,258.4C302.77,212.4 306.48,166.35 310.8,120.35C264.33,120.39 217.87,120.26 171.41,120.41Z" style="fill:rgb(1,112,186);fill-rule:nonzero;"/>
                    </g>
                    <g id="_-29a9dfff" serif:id="#29a9dfff">
                        <path d="M171.41,120.41C217.87,120.26 264.33,120.39 310.8,120.35C306.48,166.35 302.77,212.4 298.48,258.4C294.82,298.61 291.3,338.83 287.81,379.05C286.49,392.28 285.71,405.57 284.04,418.77C250.48,427.98 216.94,437.27 183.36,446.39C179.41,447.61 175.39,448.62 171.3,449.28C171.08,434.75 171.99,420.17 170.81,405.68C171.11,405.62 171.72,405.5 172.02,405.44C203.25,397.6 234.27,388.97 265.43,380.85C269.37,336.65 273.74,292.47 276.51,248.18C250.01,248.32 223.5,248.24 197,248.35C193.14,248.37 189.28,248.35 185.44,248.07C199.7,240.73 214.7,234.91 229.34,228.36C243.39,221.99 257.61,216.02 271.71,209.77C274.43,208.52 277.33,207.48 279.72,205.62C280.66,202.17 280.61,198.56 280.98,195.03C281.79,183.83 283.23,172.69 283.77,161.48C246.24,161.18 208.71,161.44 171.17,161.24C171.59,147.64 171.17,134.02 171.41,120.41Z" style="fill:rgb(41,169,223);fill-rule:nonzero;"/>
                        <path d="M171.6,290.22C189.72,289.91 207.85,290.4 225.98,290.28C224.97,308.81 223.43,327.31 222.47,345.84C211.36,349.47 200.08,352.54 188.88,355.9C182.91,357.72 176.78,359.16 171.1,361.83C171.83,337.97 170.86,314.08 171.6,290.22Z" style="fill:rgb(41,169,223);fill-rule:nonzero;"/>
                    </g>
                    <g id="_-cfcfcfff" serif:id="#cfcfcfff">
                        <path d="M53.92,161.25C93,161.21 132.09,161.1 171.17,161.24C171.68,204.24 171.04,247.24 171.6,290.22C156.07,290.56 140.53,290.25 125,290.33C105.62,290.36 86.25,290.67 66.87,290.74C65.84,276.26 63.5,261.83 63.23,247.32C65.68,245.54 68.61,244.62 71.35,243.4C103.3,229.43 135.5,215.99 167.31,201.72C130.95,200.63 94.54,202.03 58.18,200.68C56.36,187.58 54.59,174.46 53.92,161.25Z" style="fill:rgb(207,207,207);fill-rule:nonzero;"/>
                        <path d="M69.76,316.08C81.51,315.9 93.26,316.01 105,315.94C107.42,315.98 109.9,315.91 112.24,316.63C113.26,328.09 114.06,339.58 115.21,351.03C123.3,353.38 131.71,354.31 139.92,356.1C150.33,357.95 160.65,360.28 171.1,361.83C172.1,376.35 170.35,390.97 172.02,405.44C171.72,405.5 171.11,405.62 170.81,405.68C168.62,405.86 166.49,405.08 164.38,404.63C146.64,399.89 128.71,395.88 111,391.06C99.44,387.91 87.84,384.95 76.26,381.93C72.89,360.11 70.91,338.11 69.76,316.08Z" style="fill:rgb(207,207,207);fill-rule:nonzero;"/>
                    </g>
                    <g id="_-ffffffff" serif:id="#ffffffff">
                        <path d="M171.17,161.24C208.71,161.44 246.24,161.18 283.77,161.48C283.23,172.69 281.79,183.83 280.98,195.03C280.61,198.56 280.66,202.17 279.72,205.62C277.33,207.48 274.43,208.52 271.71,209.77C257.61,216.02 243.39,221.99 229.34,228.36C214.7,234.91 199.7,240.73 185.44,248.07C189.28,248.35 193.14,248.37 197,248.35C223.5,248.24 250.01,248.32 276.51,248.18C273.74,292.47 269.37,336.65 265.43,380.85C234.27,388.97 203.25,397.6 172.02,405.44C170.35,390.97 172.1,376.35 171.1,361.83C176.78,359.16 182.91,357.72 188.88,355.9C200.08,352.54 211.36,349.47 222.47,345.84C223.43,327.31 224.97,308.81 225.98,290.28C207.85,290.4 189.72,289.91 171.6,290.22C171.04,247.24 171.68,204.24 171.17,161.24Z" style="fill:white;fill-rule:nonzero;"/>
                    </g>
                </g>
                <g id="icon_css.svg2" serif:id="icon_css.svg">
                </g>
            </g>
        </g>
    </g>
</svg>
