<?xml version="1.0" encoding="UTF-8" standalone="no"?><!DOCTYPE svg PUBLIC "-//W3C//DTD SVG 1.1//EN" "http://www.w3.org/Graphics/SVG/1.1/DTD/svg11.dtd"><svg width="100%" height="100%" viewBox="0 0 96 86" version="1.1" xmlns="http://www.w3.org/2000/svg" xmlns:xlink="http://www.w3.org/1999/xlink" xml:space="preserve" xmlns:serif="http://www.serif.com/" style="fill-rule:evenodd;clip-rule:evenodd;"><g><ellipse cx="47.917" cy="42.632" rx="45.833" ry="17.5" style="fill:none;stroke:#61dafb;stroke-width:4.17px;"/><path d="M63.072,33.882c12.648,21.907 16.126,43.614 7.761,48.443c-8.364,4.829 -25.424,-9.036 -38.072,-30.943c-12.648,-21.907 -16.126,-43.613 -7.761,-48.443c8.365,-4.829 25.424,9.036 38.072,30.943Z" style="fill:none;stroke:#61dafb;stroke-width:4.17px;"/><path d="M63.072,51.382c-12.648,21.907 -29.707,35.772 -38.072,30.943c-8.365,-4.829 -4.887,-26.536 7.761,-48.443c12.648,-21.907 29.708,-35.772 38.072,-30.943c8.365,4.83 4.887,26.536 -7.761,48.443Z" style="fill:none;stroke:#61dafb;stroke-width:4.17px;"/><circle cx="47.917" cy="42.632" r="8.542" style="fill:#61dafb;"/></g><g id="svg_1"><path id="svg_2" d="M44.549,1.528c-4.27,0.936 -6.966,2.416 -10.374,5.692c-4.85,4.682 -7.884,12.827 -7.884,21.16c0,6.573 1.33,12.097 4.438,18.445l1.423,2.865l-0.318,0.674c-0.206,0.431 -0.318,1.124 -0.318,1.966c-0,3.015 2.247,5.243 5.262,5.243c3.876,0 6.404,-4.175 4.625,-7.658c-0.88,-1.723 -2.416,-2.697 -4.457,-2.847l-1.236,-0.093l-1.142,-2.266c-3.183,-6.404 -4.382,-13.389 -3.502,-20.43c0.562,-4.531 1.873,-8.145 4.27,-11.684c1.722,-2.566 3.314,-3.933 5.992,-5.169c2.64,-1.217 4.438,-1.647 7.059,-1.666c2.135,-0 2.453,0.037 3.745,0.524c4.214,1.611 7.453,5.318 9.457,10.88c0.655,1.797 1.504,6.83 1.504,6.83l4.45,0.729c0,-0 -1.088,-7.352 -1.572,-8.702c-2.641,-7.602 -7.622,-12.602 -14.363,-14.418c-1.76,-0.468 -5.074,-0.506 -7.059,-0.075Z" style="fill:#7f00ff;fill-rule:nonzero;"/><path id="svg_3" d="M41.347,23.605c-2.828,1.311 -3.97,4.457 -2.622,7.191c0.899,1.854 2.659,2.94 4.794,2.94c1.46,-0 3.127,-0.843 4.026,-2.004c0.356,-0.468 0.655,-0.936 0.655,-1.011c0,-0.094 1.255,-0.168 2.79,-0.168c4.906,-0 9.176,0.973 14.063,3.183c7.921,3.614 13.351,9.138 15.767,16.104c0.581,1.685 0.618,1.91 0.618,4.494c-0,2.827 -0.169,3.689 -1.086,5.524c-2.828,5.711 -8.52,8.689 -15.187,7.977c-2.134,-0.243 -4.831,-0.861 -6.479,-1.517l-2.413,-0.993l-3.081,3.809l1.281,0.555c1.742,0.749 4.026,1.479 5.917,1.91c1.648,0.356 2.472,0.431 5.319,0.431c3.614,-0 4.494,-0.132 7.396,-1.068c4.962,-1.573 9.307,-5.149 11.254,-9.231c0.88,-1.836 1.217,-3.128 1.461,-5.506c0.524,-5.018 -1.386,-11.085 -4.906,-15.654c-7.097,-9.176 -18.239,-14.456 -30.635,-14.531l-2.172,-0l-0.693,-0.899c-0.937,-1.236 -2.079,-1.779 -3.895,-1.854c-1.086,-0.037 -1.592,0.037 -2.172,0.318Z" style="fill:#7f00ff;fill-rule:nonzero;"/><path id="svg_4" d="M20.636,35.758c-4.007,3.202 -7.228,7.79 -8.464,12.078c-0.73,2.528 -0.917,3.82 -0.917,6.217c-0,3.24 0.58,5.824 1.947,8.558c1.311,2.659 3.052,4.55 5.749,6.291c4.606,2.959 11.535,3.858 18.107,2.36c5.824,-1.33 10.524,-3.502 15.093,-6.947c4.307,-3.24 7.509,-7.116 10.73,-13.033c0.15,-0.281 0.449,-0.506 0.637,-0.506c0.655,0 1.722,-0.562 2.565,-1.329c1.891,-1.742 2.172,-4.775 0.655,-6.891c-1.498,-2.06 -4.494,-2.772 -6.759,-1.611c-0.937,0.487 -2.004,1.742 -2.416,2.828c-0.637,1.722 -0.468,3.202 0.562,4.831l0.58,0.899l-0.599,1.048c-1.798,3.221 -4.813,6.76 -7.846,9.232c-2.565,2.079 -6.891,4.625 -9.981,5.861c-4.812,1.948 -10.449,2.453 -14.83,1.33c-5.805,-1.48 -9.719,-6.348 -10.131,-12.546c-0.281,-4.438 1.742,-8.895 5.992,-13.146l2.985,-2.235c0,0 -1.698,-4.394 -1.792,-4.469c-0.094,-0.056 -1.099,0.581 -1.867,1.18Z" style="fill:#7f00ff;fill-rule:nonzero;"/></g></svg>