<?xml version="1.0" encoding="UTF-8" standalone="no"?>
<!DOCTYPE svg PUBLIC "-//W3C//DTD SVG 1.1//EN" "http://www.w3.org/Graphics/SVG/1.1/DTD/svg11.dtd">
<svg width="100%" height="100%" viewBox="0 0 146 158" version="1.1" xmlns="http://www.w3.org/2000/svg" xmlns:xlink="http://www.w3.org/1999/xlink" xml:space="preserve" xmlns:serif="http://www.serif.com/" style="fill-rule:evenodd;clip-rule:evenodd;stroke-linejoin:round;stroke-miterlimit:2;">
    <g transform="matrix(0.986278,0,0,0.96832,-520.907,-198.246)">
        <g id="Layer-1" serif:id="Layer 1">
            <g id="g8487">
                <g id="g3652" transform="matrix(1.25,0,0,1.25,-2.50652,174.172)">
                    <path id="path3654" d="M512.87,26.15C514.27,26.13 515.68,26.11 517.09,26.1C517.11,26.88 517.14,28.43 517.16,29.21C515.72,29.21 514.28,29.2 512.85,29.2C512.85,28.44 512.87,26.92 512.87,26.15Z" style="fill:rgb(16,16,16);fill-opacity:0.85;fill-rule:nonzero;"/>
                </g>
                <path id="path3664" d="M531.793,207.66C535.006,207.685 538.231,207.697 541.468,207.71C541.193,213.46 542.318,219.435 540.693,225.035C538.593,229.06 533.368,228.272 529.606,228.347C529.456,227.072 529.306,225.797 529.168,224.522C531.331,224.347 533.681,224.772 535.668,223.66C536.956,219.672 536.381,215.41 536.056,211.31C534.956,211.335 532.768,211.36 531.668,211.372C531.706,210.447 531.756,208.585 531.793,207.66Z" style="fill:rgb(19,19,19);fill-rule:nonzero;"/>
                <path id="path3666" d="M596.156,209.235C599.943,206.31 604.918,207.51 609.131,208.647C609.118,209.76 609.106,211.985 609.106,213.097C605.843,211.785 599.643,208.922 598.818,214.322C601.906,215.26 605.168,215.81 607.968,217.485C610.943,219.91 610.106,225.422 606.681,227.085C602.781,229.397 598.156,228.135 594.043,227.297C593.806,225.585 593.568,223.885 593.356,222.172C596.818,223.697 603.831,227.31 604.868,221.472C601.393,220.16 597.068,219.972 594.543,216.972C593.431,214.422 593.618,210.872 596.156,209.235Z" style="fill:rgb(19,19,19);fill-rule:nonzero;"/>
                <path id="path3668" d="M665.268,208.372L669.693,208.372C669.731,209.785 669.781,211.197 669.843,212.61C670.968,212.622 673.231,212.647 674.368,212.66C674.393,213.522 674.431,215.235 674.456,216.085C673.306,216.072 671.006,216.047 669.856,216.022C669.918,218.885 669.181,222.01 670.618,224.647C671.693,224.76 673.843,224.972 674.918,225.085C674.806,230.347 668.806,227.96 665.631,227.135C665.343,223.922 665.206,220.71 665.206,217.485C664.393,216.347 663.581,215.197 662.781,214.06C663.393,213.497 664.618,212.372 665.231,211.81C665.243,210.947 665.256,209.222 665.268,208.372Z" style="fill:rgb(19,19,19);fill-rule:nonzero;"/>
                <path id="path3670" d="M545.368,212.772C549.443,212.56 555.143,211.047 557.706,215.26C558.618,219.435 558.043,223.772 558.181,228.022C556.356,227.86 554.531,227.685 552.718,227.522C550.643,227.697 548.206,229.235 546.293,227.86C543.118,226.335 543.068,220.71 546.406,219.347C548.831,218.347 551.481,218.172 554.018,217.572C551.606,215.072 548.181,216.022 545.143,216.347C545.206,215.447 545.318,213.66 545.368,212.772M549.343,221.36C549.206,222.572 549.081,223.785 548.968,225.01C550.356,224.935 551.743,224.872 553.143,224.797C553.243,223.485 553.356,222.172 553.468,220.86C552.081,221.022 550.706,221.197 549.343,221.36Z" style="fill:rgb(19,19,19);fill-rule:nonzero;"/>
                <path id="path3672" d="M560.043,212.335C561.243,212.572 563.656,213.047 564.856,213.285C566.118,216.185 566.981,219.235 568.206,222.16C569.231,219.035 570.181,215.872 571.106,212.71C572.306,212.685 574.718,212.647 575.918,212.622C574.218,217.985 572.318,223.285 570.193,228.51C568.543,228.297 566.918,227.947 565.343,227.485C563.068,222.635 561.568,217.46 560.043,212.335Z" style="fill:rgb(19,19,19);fill-rule:nonzero;"/>
                <path id="path3674" d="M577.468,216.322C577.818,215.135 578.218,213.947 578.656,212.785C582.531,212.222 587.781,211.397 590.443,215.022C591.356,219.347 590.793,223.822 590.881,228.21C589.043,227.96 587.218,227.71 585.393,227.46C582.118,229.197 576.656,228.572 576.731,223.96C576.106,218.485 582.943,218.41 586.656,217.685C584.418,214.685 580.543,216.272 577.468,216.322M581.993,221.472C581.856,222.597 581.731,223.735 581.606,224.86C582.981,224.897 584.356,224.935 585.743,224.96C585.868,223.572 585.993,222.197 586.118,220.81C584.743,221.022 583.368,221.247 581.993,221.472Z" style="fill:rgb(19,19,19);fill-rule:nonzero;"/>
                <path id="path3676" d="M610.906,220.41C610.518,213.61 619.168,210.047 624.343,213.672C624.468,214.635 624.706,216.572 624.818,217.535C622.443,216.785 620.006,215.085 617.456,216.235C614.756,218.81 615.318,225.347 619.893,224.96C621.156,224.56 623.668,223.76 624.931,223.36C624.706,224.435 624.268,226.585 624.056,227.647C618.643,230.197 610.481,227.185 610.906,220.41Z" style="fill:rgb(19,19,19);fill-rule:nonzero;"/>
                <path id="path3678" d="M626.893,212.285C628.768,212.785 630.681,213.285 632.568,213.822C633.981,213.31 635.406,212.81 636.843,212.297C636.906,213.497 637.056,215.897 637.131,217.097C635.331,217.185 633.531,217.272 631.756,217.36C631.631,220.947 631.593,224.522 631.568,228.11C630.393,228.122 628.031,228.135 626.856,228.147C626.793,222.86 626.781,217.572 626.893,212.285Z" style="fill:rgb(19,19,19);fill-rule:nonzero;"/>
                <path id="path3680" d="M647.218,212.622C650.668,213.397 654.143,213.16 657.581,212.472C662.968,213.585 663.093,221.222 661.043,225.222C659.343,228.672 655.181,228.347 651.968,228.172C651.993,229.997 652.018,231.81 652.043,233.635C650.843,233.622 648.418,233.597 647.206,233.572C647.206,226.597 647.193,219.61 647.218,212.622M652.093,216.297C652.043,219.21 652.018,222.135 652.043,225.047C653.593,224.622 655.593,224.922 656.768,223.585C657.643,221.21 656.956,218.647 656.781,216.197C655.218,216.222 653.656,216.26 652.093,216.297Z" style="fill:rgb(19,19,19);fill-rule:nonzero;"/>
                <g id="g3688" transform="matrix(1.25,0,0,1.25,-2.50652,174.172)">
                    <path id="path3690" d="M513.23,30.79L516.78,30.79C516.84,34.92 516.84,39.04 516.78,43.17L513.23,43.17C513.16,39.05 513.16,34.92 513.23,30.79Z" style="fill:rgb(19,19,19);fill-rule:nonzero;"/>
                </g>
                <g id="g3768" transform="matrix(1.25,0,0,1.25,-2.50652,174.172)">
                    <path id="path3770" d="M439.03,51.2C449,50.78 458.99,51.32 468.97,51.15C479.98,50.8 490.98,51.09 502,51.13C510.74,51.15 519.48,51.09 528.22,51.16C525.47,81.49 522.7,111.82 520.15,142.17C508.44,145.5 496.72,148.78 485.01,152.09C483.51,152.71 481.97,152.13 480.53,151.74C469.4,148.54 458.27,145.37 447.12,142.29C444.22,111.95 441.49,81.58 439.03,51.2M483.81,59.11C483.4,74.07 483.75,89.03 483.63,103.99C483.74,117.67 483.43,131.36 483.79,145.04C493.63,142.72 503.34,139.87 513.05,137.06C515.49,111.09 517.87,85.12 519.91,59.12C507.88,59 495.84,59.14 483.81,59.11M471.29,117.53C465.51,115.95 459.8,114.13 453.94,112.88C453.77,116.36 453.83,119.84 454.23,123.3C462.81,125.39 471.21,128.14 479.8,130.19C479.86,110.38 479.77,90.56 479.84,70.75C477.04,70.68 474.24,70.64 471.44,70.58C471.12,86.22 471.42,101.88 471.29,117.53Z" style="fill:rgb(214,186,50);fill-rule:nonzero;"/>
                </g>
                <g id="g3796" transform="matrix(1.25,0,0,1.25,-2.50652,174.172)">
                    <path id="path3798" d="M483.81,59.11C495.84,59.14 507.88,59 519.91,59.12C517.87,85.12 515.49,111.09 513.05,137.06C503.34,139.87 493.63,142.72 483.79,145.04C483.43,131.36 483.74,117.67 483.63,103.99C483.75,89.03 483.4,74.07 483.81,59.11M487.18,70.74C487.22,83.62 487.23,96.51 487.18,109.39C493.06,108.44 498.92,107.35 504.78,106.28C504.69,109.28 504.57,112.28 504.44,115.28C498.73,116.8 493.03,118.37 487.29,119.78C487.2,123.24 487.19,126.7 487.22,130.17C494.45,128.55 501.57,126.51 508.75,124.7C509.65,124.28 511.38,124.33 511.3,122.92C512.17,113.66 512.71,104.36 513.55,95.08C507.6,95.57 501.71,96.57 495.76,96.98C495.71,91.72 495.7,86.46 495.78,81.2C502.04,81.2 508.29,81.2 514.55,81.21C514.95,77.7 515.3,74.18 515.57,70.66C506.11,70.7 496.64,70.57 487.18,70.74Z" style="fill:rgb(255,218,62);fill-rule:nonzero;"/>
                </g>
                <path id="path3806" d="M586.606,321.085C586.768,301.522 586.393,281.947 586.793,262.397C590.293,262.472 593.793,262.522 597.293,262.61C597.206,287.372 597.318,312.147 597.243,336.91C586.506,334.347 576.006,330.91 565.281,328.297C564.781,323.972 564.706,319.622 564.918,315.272C572.243,316.835 579.381,319.11 586.606,321.085Z" style="fill:rgb(235,235,235);fill-rule:nonzero;"/>
            </g>
        </g>
    </g>
</svg>
